#tb 0: 2/25
#media_type 0: video
#codec_id 0: rawvideo
#dimensions 0: 100x70
#sar 0: 0/1
0,          0,          0,        1,    28000, 0x2023ba6e
0,          1,          1,        1,    28000, 0x4292b778
0,          2,          2,        1,    28000, 0x9772a187
0,          3,          3,        1,    28000, 0x9599bb3b
0,          4,          4,        1,    28000, 0xa1d6b949
0,          5,          5,        1,    28000, 0x153bb9fc
0,          6,          6,        1,    28000, 0x6ba8d83b
0,          7,          7,        1,    28000, 0xed2a4316
0,          8,          8,       12,    28000, 0xe7994c44
0,         21,         21,        1,    28000, 0x15ec2f76
0,         22,         22,        1,    28000, 0x96522a6b
0,         23,         23,        1,    28000, 0xbbae1e30
0,         24,         24,        1,    28000, 0xa2baab83
0,         25,         25,        1,    28000, 0x09f1aba0
0,         26,         26,        1,    28000, 0x09f1aba0
0,         27,         27,        1,    28000, 0xe761bbc0
0,         28,         28,      125,    28000, 0xe761bbc0
